<svg xmlns="http://www.w3.org/2000/svg" viewBox="0 0 36 36">
    <path d="M20.2 13.161a3.214 3.214 0 0 1 1.949-.749h2.133c1.119 0 .273.732.273.732L20.528 17.1a.3.3 0 0 1-.423 0l-1.823-1.641a.3.3 0 0 1 0-.423zm1.337 9.758a3.224 3.224 0 0 0 1.978.67h1.917c1.118-.046.242-.74.242-.74l-5.095-4.61a.3.3 0 0 0-.423.016l-1.6 1.584a.3.3 0 0 0 .015.423z" style="fill:#333"/>
    <path d="M10.785 23.592h2.047c.074 0 .146 0 .216-.01a2.766 2.766 0 0 0 1.008-.3 3.277 3.277 0 0 0 .507-.322 2.174 2.174 0 0 0 .182-.155l.935-.926.741-.734.464-.459.445-.44.305-.3.314-.311.532-.527.874-.865c.084-.084.169-.167.254-.249a.449.449 0 0 0 .156-.278.466.466 0 0 0-.18-.3l-.38-.342-.825-.743-.479-.431-.483-.435-.218-.2-.781-.7-1.247-1.123-.306-.276a3.193 3.193 0 0 0-1.85-.745H10.58c-.433 0-.572.11-.579.244a.581.581 0 0 0 .173.352 1.456 1.456 0 0 0 .134.136l.477.412 1.054.912 1.044.9 1.8 1.558.345.3a.948.948 0 0 1 .019 1.482c-.19.177-.384.349-.577.524l-1.993 1.81-1.212 1.1-.715.649-.055.05c-.321.291-.349.47-.264.579.134.163.554.163.554.163z" style="fill:#ff7900"/>
</svg>
